<?xml version="1.0" standalone="no"?>
<!DOCTYPE svg PUBLIC "-//W3C//DTD SVG 1.1//EN" "http://www.w3.org/Graphics/SVG/1.1/DTD/svg11.dtd">
<svg width="100%" height="100%" viewBox="0 0 512 626" version="1.1" xmlns="http://www.w3.org/2000/svg" xmlns:xlink="http://www.w3.org/1999/xlink" xml:space="preserve" style="fill-rule:evenodd;clip-rule:evenodd;stroke-linejoin:round;stroke-miterlimit:1.41421;">
    <g id="Slider">
        <g transform="matrix(4.15007,0,0,3.62781,-122.621,-101.899)">
            <rect x="35.811" y="35.435" width="110.802" height="110.802" style="fill:rgb(77,161,179);"/>
        </g>
        <g transform="matrix(1,0,0,1,0,23.4724)">
            <g transform="matrix(1,0,0,1,-19.1298,0)">
                <circle cx="173.078" cy="455.237" r="23.542" style="fill:rgb(77,161,179);"/>
            </g>
            <g transform="matrix(1,0,0,1,47.1359,0)">
                <circle cx="173.078" cy="455.237" r="23.542" style="fill:rgb(144,197,208);"/>
            </g>
            <g transform="matrix(1,0,0,1,115.49,0)">
                <circle cx="173.078" cy="455.237" r="23.542" style="fill:rgb(144,197,208);"/>
            </g>
            <g transform="matrix(1,0,0,1,184.974,0)">
                <circle cx="173.078" cy="455.237" r="23.542" style="fill:rgb(144,197,208);"/>
            </g>
        </g>
        <g transform="matrix(1,0,0,1,-0.246958,12.329)">
            <g transform="matrix(-2.31227e-16,-1.43787,1.43787,-2.31227e-16,-186.348,388.896)">
                <path d="M120.725,162.466L147.83,200.336L93.619,200.336L120.725,162.466Z" style="fill:rgb(144,197,208);"/>
            </g>
            <g transform="matrix(5.51387e-17,1.43787,-1.43787,5.51387e-17,698.842,41.7234)">
                <path d="M120.725,162.466L147.83,200.336L93.619,200.336L120.725,162.466Z" style="fill:rgb(144,197,208);"/>
            </g>
        </g>
        <g transform="matrix(1,0,0,1,-12.318,52.4394)">
            <text x="134.935px" y="537.067px" style="font-family:'Arial-BoldMT';font-size:96px;fill:rgb(64,64,64);">Slider</text>
        </g>
    </g>
</svg>
